# AST/ASF file generated using VICON BodyLanguage
# -----------------------------------------------
:version 1.10
:name VICON
:units
  mass 1.0
  length 0.45
  angle deg
:documentation
   .ast/.asf automatically generated from VICON data using
   VICON BodyBuilder and BodyLanguage model FoxedUp or BRILLIANT.MOD
:root
   order TX TY TZ RX RY RZ
   axis XYZ
   position 0 0 0  
   orientation 0 0 0 
:bonedata
  begin
     id 1 
     name lhipjoint
     direction 0.624716 -0.669793 0.401383 
     length 2.38238 
     axis 0 0 0  XYZ
  end
  begin
     id 2 
     name lfemur
     direction 0.34202 -0.939693 0  
     length 6.4574  
     axis 0 0 20  XYZ
    dof rx ry rz
    limits (-160.0 20.0)
           (-70.0 70.0)
           (-60.0 70.0)
  end
  begin
     id 3 
     name ltibia
     direction 0.34202 -0.939693 0   
     length 7.68739   
     axis 0 0 20   XYZ
    dof rx
    limits (-10.0 170.0)
  end
  begin
     id 4 
     name lfoot
     direction 0.0681309 -0.187188 0.979959   
     length 2.46615   
     axis -90 7.62852e-016 20   XYZ
    dof rx rz
    limits (-45.0 90.0)
           (-70.0 20.0)
  end
  begin
     id 5 
     name ltoes
     direction 1.53566e-011 -4.21819e-011 1   
     length 1.2376   
     axis -90 7.62852e-016 20   XYZ
    dof rx
    limits (-90.0 20.0)
  end
  begin
     id 6 
     name rhipjoint
     direction -0.644473 -0.655875 0.393043   
     length 2.43293  
     axis 0 0 0  XYZ 
  end
  begin
     id 7 
     name rfemur
     direction -0.34202 -0.939693 0   
     length 6.7025   
     axis 0 0 -20   XYZ
    dof rx ry rz
    limits (-160.0 20.0)
           (-70.0 70.0)
           (-70.0 60.0)
  end
  begin
     id 8 
     name rtibia
     direction -0.34202 -0.939693 0   
     length 7.80547   
     axis 0 0 -20   XYZ
    dof rx
    limits (-10.0 170.0)
 end
 begin
     id 9 
     name rfoot
     direction -0.0756734 -0.207911 0.975216   
     length 2.40315  
     axis -90 -7.62852e-016 -20   XYZ
    dof rx rz
    limits (-45.0 90.0)
           (-20.0 70.0)
  end
  begin
     id 10 
     name rtoes
     direction -1.5353e-011 -4.21879e-011 1   
     length 1.20477   
     axis -90 -7.62852e-016 -20   XYZ
    dof rx
    limits (-90.0 20.0)
  end
  begin
     id 11 
     name lowerback
     direction 0.0160353 0.987463 -0.157037   
     length 2.18572   
     axis 0 0 0   XYZ
    dof rx ry rz
    limits (-20.0 45.0)
           (-30.0 30.0)
           (-30.0 30.0)
  end
  begin
     id 12 
     name upperback
     direction -0.00499661 0.999756 0.0215076   
     length 2.18016   
     axis 0 0 0   XYZ
    dof rx ry rz
    limits (-20.0 45.0)
           (-30.0 30.0)
           (-30.0 30.0)
  end
  begin
     id 13 
     name thorax
     direction -0.00921346 0.995333 0.0960619   
     length 2.24923   
     axis 0 0 0   XYZ
    dof rx ry rz
    limits (-20.0 45.0)
           (-30.0 30.0)
           (-30.0 30.0)
  end
  begin
     id 14 
     name lowerneck
     direction 0.0274184 0.991181 0.12965   
     length 1.70911   
     axis 0 0 0   XYZ
    dof rx ry rz
    limits (-20.0 45.0)
           (-30.0 30.0)
           (-30.0 30.0)
  end
  begin
     id 15 
     name upperneck
     direction 0.0015627 0.999959 -0.00893559   
     length 1.69312   
     axis 0 0 0   XYZ
    dof rx ry rz
    limits (-20.0 45.0)
           (-30.0 30.0)
           (-30.0 30.0)
  end
  begin
     id 16
     name head
     direction -0.00230242 0.999856 -0.0168327  
     length 1.80241  
     axis 0 0 0   XYZ
    dof rx ry rz
    limits (-20.0 45.0)
           (-30.0 30.0)
           (-30.0 30.0)
  end
  begin
     id 17 
     name lclavicle
     direction 0.955523 0.290741 -0.0494489  
     length 3.84275  
     axis 0 0 0   XYZ
    dof ry rz
    limits (-20.0 10.0)
           (0.0 20.0)
  end
  begin
     id 18 
     name lhumerus
     direction 1 -4.48967e-011 -3.18382e-028   
     length 5.17714   
     axis 180 -30 -90   XYZ
    dof rx ry rz
    limits (-60.0 90.0)
           (-90.0 90.0)
           (-90.0 90.0)
  end
  begin
     id 19
     name lradius
     direction 1 -4.48968e-011 -2.22911e-027   
     length 3.43679   
     axis 180 -30 -90   XYZ
    dof rx
    limits (-10.0 170.0)
  end
  begin
     id 20
     name lwrist
     direction 1 -4.48951e-011 -6.32245e-027   
     length 1.7184   
     axis 3.57107e-015 90 90   XYZ
    dof ry
    limits (-180.0 0.0)
 end
  begin
     id 21 
     name lhand
     direction 1 -4.48924e-011 -1.26431e-026   
     length 0.573117   
     axis 8.06912e-015 90 90   XYZ
    dof rx rz
    limits (-90.0 90.0)
           (-45.0 45.0)
  end
  begin
     id 22 
     name lfingers
     direction 1 -4.49001e-011 -2.52965e-026   
     length 0.462062   
     axis 1.61381e-014 90 90   XYZ
    dof rx
    limits (0.0 90.0)
  end
  begin
     id 23
     name lthumb
     direction 0.707107 -6.35008e-011 0.707107   
     length 0.663431   
     axis -90 45 -1.62303e-014   XYZ
    dof rx rz
    limits (-45.0 45.0)
           (-45.0 45.0)
  end
  begin
     id 24 
     name rclavicle
     direction -0.963917 0.256881 -0.0698287   
     length 3.73057  
     axis 0 0 0   XYZ 
    dof ry rz
    limits (-10.0 20.0)
           (-20.0 0.0)
  end
  begin
     id 25 
     name rhumerus
     direction -1 -4.48962e-011 -2.73982e-027  
     length 5.23908   
     axis 180 30 90   XYZ
    dof rx ry rz
    limits (-90.0 60.0)
           (-90.0 90.0)
           (-90.0 90.0)
  end
  begin
     id 26 
     name rradius
     direction -1 -4.48968e-011 -4.33218e-027   
     length 3.46485   
     axis 180 30 90   XYZ
    dof rx
    limits (-10.0 170.0)
  end
  begin
     id 27 
     name rwrist
     direction -1 -4.48989e-011 -6.32372e-027   
     length 1.73243   
     axis 3.57107e-015 -90 -90   XYZ
    dof ry
    limits (-180.0 0.0)
  end
  begin
     id 28
     name rhand
     direction -1 -4.48948e-011 -1.26448e-026   
     length 0.608752   
     axis 8.06912e-015 -90 -90   XYZ
    dof rx rz
    limits (-90.0 90.0)
           (-45.0 45.0)
  end
  begin
     id 29
     name rfingers
     direction -1 -4.48962e-011 -2.52913e-026   
     length 0.490792   
     axis 1.61381e-014 -90 -90   XYZ
    dof rx
    limits (0.0 90.0)
  end
  begin
     id 30
     name rthumb
     direction -0.707107 -6.34878e-011 0.707107   
     length 0.704682   
     axis -90 -45 1.62303e-014   XYZ
    dof rx rz
    limits (-45.0 45.0)
           (-45.0 45.0)
  end
:hierarchy
  begin
    root lhipjoint rhipjoint lowerback
    lhipjoint lfemur
    lfemur ltibia
    ltibia lfoot
    lfoot ltoes
    rhipjoint rfemur
    rfemur rtibia
    rtibia rfoot
    rfoot rtoes
    lowerback upperback
    upperback thorax
    thorax lowerneck lclavicle rclavicle
    lowerneck upperneck
    upperneck head
    lclavicle lhumerus
    lhumerus lradius
    lradius lwrist
    lwrist lhand lthumb
    lhand lfingers
    rclavicle rhumerus
    rhumerus rradius
    rradius rwrist
    rwrist rhand rthumb
    rhand rfingers
  end

#!OML:ASF G:\JayActor3\Patient Classification 1\Patient 1\Session 6\male.ASF
:FULLY-SPECIFIED
:DEGREES
628
root 0.044175 14.6405 -1.30666 60.9959 -88.2122 -43.0273
lowerback 36.0956 0.16515 0.310247
upperback 16.6853 -1.87513 -0.201667
thorax 0.250737 -1.71352 0.197805
lowerneck 10.1038 -4.87155 0.517118
upperneck -39.4349 -4.44846 13.0773
head -15.1604 -4.91267 6.50861
rclavicle 1.27222e-014 -1.23246e-014
rhumerus -21.1386 6.24463 -82.8588
rradius 67.262
rwrist -10.2186
rhand -24.8079 -9.33963
rfingers 7.12502
rthumb 1.69708 -39.3126
lclavicle 1.27222e-014 -1.23246e-014
lhumerus -17.5462 -7.13086 75.0354
lradius 69.8076
lwrist 24.728
lhand -20.1971 10.1056
lfingers 7.12502
lthumb 6.14955 39.9963
rfemur -63.7842 -11.9852 22.654
rtibia 73.6275
rfoot -24.4854 -10.9137
rtoes -9.57815
lfemur -61.2307 13.634 -25.2599
ltibia 69.5255
lfoot -24.7957 7.01118
ltoes -5.98943
629
root 0.0472888 14.6425 -1.31389 60.9178 -88.1965 -42.9345
lowerback 36.1198 0.186007 0.295271
upperback 16.7405 -1.8648 -0.20753
thorax 0.303405 -1.71241 0.195069
lowerneck 10.0616 -4.8545 0.484301
upperneck -39.3535 -4.4452 13.0248
head -15.1095 -4.89338 6.47557
rclavicle 3.97569e-015 4.96962e-015
rhumerus -21.0787 6.29123 -82.8327
rradius 67.3123
rwrist -10.2189
rhand -24.819 -9.32715
rfingers 7.12502
rthumb 1.68637 -39.3002
lclavicle 3.97569e-015 4.96962e-015
lhumerus -17.5146 -7.0726 75.0947
lradius 69.8437
lwrist 24.7369
lhand -20.2488 10.1221
lfingers 7.12502
lthumb 6.09959 40.0143
rfemur -63.7851 -11.9378 22.6881
rtibia 73.5924
rfoot -24.5112 -10.9533
rtoes -9.48677
lfemur -61.2438 13.6023 -25.2156
ltibia 69.4963
lfoot -24.7673 7.05561
ltoes -5.98873
630
root 0.0505162 14.6445 -1.32096 60.6379 -88.1815 -42.6396
lowerback 36.1549 0.209965 0.277386
upperback 16.7952 -1.85178 -0.213057
thorax 0.351895 -1.71022 0.193633
lowerneck 10.0113 -4.83513 0.45335
upperneck -39.2766 -4.43878 12.9714
head -15.0596 -4.87322 6.44177
rclavicle 6.83819e-014 4.33351e-014
rhumerus -21.0351 6.32762 -82.8007
rradius 67.3946
rwrist -10.1911
rhand -24.8277 -9.3065
rfingers 7.12502
rthumb 1.678 -39.2796
lclavicle 6.83819e-014 4.33351e-014
lhumerus -17.4947 -7.02526 75.1485
lradius 69.9163
lwrist 24.7609
lhand -20.306 10.1461
lfingers 7.12502
lthumb 6.04441 40.0399
rfemur -63.784 -11.8917 22.7136
rtibia 73.555
rfoot -24.5351 -10.9961
rtoes -9.41022
lfemur -61.2521 13.5604 -25.1757
ltibia 69.459
lfoot -24.742 7.10235
ltoes -5.96511
631
root 0.0538577 14.6469 -1.32767 60.1124 -88.1676 -42.1008
lowerback 36.2044 0.23495 0.258925
upperback 16.8482 -1.83785 -0.218718
thorax 0.393829 -1.70763 0.19244
lowerneck 9.9523 -4.81216 0.418296
upperneck -39.2027 -4.42796 12.9192
head -15.0094 -4.85093 6.40865
rclavicle -4.69132e-014 -4.19436e-014
rhumerus -21.0047 6.35328 -82.7634
rradius 67.5018
rwrist -10.1429
rhand -24.8325 -9.27988
rfingers 7.12502
rthumb 1.67338 -39.2531
lclavicle -4.69132e-014 -4.19436e-014
lhumerus -17.4847 -6.99438 75.1978
lradius 70.0179
lwrist 24.7986
lhand -20.3703 10.1873
lfingers 7.12502
lthumb 5.98234 40.0828
rfemur -63.7775 -11.8511 22.7287
rtibia 73.5136
rfoot -24.5565 -11.0388
rtoes -9.34617
lfemur -61.2518 13.5098 -25.1435
ltibia 69.4126
lfoot -24.721 7.15215
ltoes -5.93137
632
root 0.0571783 14.6497 -1.33384 59.3553 -88.1499 -41.3338
lowerback 36.2701 0.256191 0.247267
upperback 16.8992 -1.82665 -0.22645
thorax 0.428243 -1.70584 0.186765
lowerneck 9.88304 -4.78595 0.377723
upperneck -39.1276 -4.41205 12.8726
head -14.9564 -4.82652 6.37766
rclavicle 1.59028e-015 2.44505e-014
rhumerus -20.9828 6.37007 -82.7246
rradius 67.6276
rwrist -10.0846
rhand -24.8208 -9.25756
rfingers 7.12502
rthumb 1.68468 -39.2307
lclavicle 1.59028e-015 2.44505e-014
lhumerus -17.4837 -6.97899 75.2385
lradius 70.1414
lwrist 24.8488
lhand -20.4281 10.2316
lfingers 7.12502
lthumb 5.92647 40.1287
rfemur -63.7616 -11.8225 22.7385
rtibia 73.4668
rfoot -24.5763 -11.0767
rtoes -9.29353
lfemur -61.2404 13.4517 -25.1158
ltibia 69.3574
lfoot -24.7031 7.20271
ltoes -5.88972
633
root 0.0604544 14.6529 -1.33978 58.4703 -88.1348 -40.4386
lowerback 36.3459 0.277881 0.231845
upperback 16.9478 -1.81616 -0.237456
thorax 0.456728 -1.70437 0.180136
lowerneck 9.80583 -4.75743 0.330335
upperneck -39.0531 -4.39227 12.8335
head -14.9018 -4.80069 6.35034
rclavicle 2.38542e-015 6.75868e-015
rhumerus -20.9681 6.38227 -82.6884
rradius 67.7688
rwrist -10.0312
rhand -24.8086 -9.23889
rfingers 7.12502
rthumb 1.69646 -39.2119
lclavicle 2.38542e-015 6.75868e-015
lhumerus -17.4863 -6.97675 75.2685
lradius 70.2735
lwrist 24.9045
lhand -20.4766 10.2803
lfingers 7.12502
lthumb 5.87967 40.1787
rfemur -63.7442 -11.7965 22.7409
rtibia 73.4154
rfoot -24.5942 -11.1111
rtoes -9.23652
lfemur -61.2248 13.393 -25.0962
ltibia 69.295
lfoot -24.6863 7.24976
ltoes -5.83727
634
root 0.0635469 14.6564 -1.34562 57.5835 -88.1118 -39.5391
lowerback 36.4257 0.297558 0.220757
upperback 16.9948 -1.80659 -0.248561
thorax 0.482209 -1.70299 0.171541
lowerneck 9.72521 -4.73034 0.276516
upperneck -38.9855 -4.37371 12.8039
head -14.849 -4.77638 6.32933
rclavicle 6.67916e-014 3.24019e-014
rhumerus -20.9603 6.3948 -82.6542
rradius 67.9213
rwrist -9.98964
rhand -24.7878 -9.22176
rfingers 7.12502
rthumb 1.7165 -39.1946
lclavicle 6.67916e-014 3.24019e-014
lhumerus -17.4873 -6.98757 75.2888
lradius 70.3999
lwrist 24.9709
lhand -20.4941 10.314
lfingers 7.12502
lthumb 5.86278 40.2129
rfemur -63.7265 -11.7745 22.7493
rtibia 73.36
rfoot -24.6089 -11.1469
rtoes -9.19051
lfemur -61.2102 13.3368 -25.0734
ltibia 69.2284
lfoot -24.6684 7.28695
ltoes -5.7763
635
root 0.0666748 14.6602 -1.35137 56.8347 -88.0755 -38.7705
lowerback 36.5055 0.313816 0.218597
upperback 17.0363 -1.79733 -0.258651
thorax 0.501702 -1.70086 0.159603
lowerneck 9.64809 -4.70741 0.21738
upperneck -38.9239 -4.35855 12.7872
head -14.7993 -4.75511 6.31645
rclavicle -1.74931e-014 -1.13307e-014
rhumerus -20.9658 6.40843 -82.6242
rradius 68.0831
rwrist -9.96883
rhand -24.7679 -9.20887
rfingers 7.12502
rthumb 1.73576 -39.1816
lclavicle -1.74931e-014 -1.13307e-014
lhumerus -17.4898 -7.00793 75.2996
lradius 70.5117
lwrist 25.039
lhand -20.5071 10.3263
lfingers 7.12502
lthumb 5.85021 40.2255
rfemur -63.7177 -11.7533 22.7708
rtibia 73.3024
rfoot -24.6193 -11.1796
rtoes -9.10652
lfemur -61.2055 13.2858 -25.0414
ltibia 69.1585
lfoot -24.6447 7.3106
ltoes -5.7121
636
root 0.0697079 14.664 -1.35722 56.2166 -88.03 -38.1226
lowerback 36.5798 0.331064 0.216737
upperback 17.0732 -1.78549 -0.265331
thorax 0.518076 -1.69725 0.150293
lowerneck 9.57346 -4.68825 0.15711
upperneck -38.8722 -4.34834 12.7752
head -14.7543 -4.73714 6.30806
rclavicle 1.11319e-014 2.98177e-015
rhumerus -20.9834 6.42186 -82.5962
rradius 68.2511
rwrist -9.97028
rhand -24.7473 -9.20397
rfingers 7.12502
rthumb 1.7556 -39.1765
lclavicle 1.11319e-014 2.98177e-015
lhumerus -17.4922 -7.03598 75.3068
lradius 70.6031
lwrist 25.1008
lhand -20.5108 10.3308
lfingers 7.12502
lthumb 5.84669 40.2301
rfemur -63.7219 -11.7305 22.802
rtibia 73.2447
rfoot -24.6282 -11.2056
rtoes -8.98107
lfemur -61.2148 13.2432 -25.0047
ltibia 69.087
lfoot -24.6153 7.32026
ltoes -5.64655
637
root 0.0725278 14.6684 -1.36282 55.696 -87.9749 -37.5682
lowerback 36.6517 0.349022 0.215327
upperback 17.105 -1.77133 -0.26717
thorax 0.529756 -1.6924 0.145198
lowerneck 9.50637 -4.67393 0.103727
upperneck -38.832 -4.34456 12.7619
head -14.7166 -4.72342 6.30087
rclavicle -3.10104e-014 -3.10104e-014
rhumerus -21.0173 6.43583 -82.5685
rradius 68.4227
rwrist -9.99526
rhand -24.7344 -9.20125
rfingers 7.12502
rthumb 1.76811 -39.1737
lclavicle -3.10104e-014 -3.10104e-014
lhumerus -17.499 -7.06806 75.3162
lradius 70.6703
lwrist 25.1556
lhand -20.5191 10.329
lfingers 7.12502
lthumb 5.83867 40.2286
rfemur -63.7296 -11.713 22.8413
rtibia 73.1854
rfoot -24.6329 -11.2233
rtoes -8.83512
lfemur -61.2266 13.2098 -24.9644
ltibia 69.0113
lfoot -24.5856 7.31382
ltoes -5.5739
638
root 0.0752009 14.6729 -1.36821 55.2186 -87.9167 -37.0498
lowerback 36.7196 0.371712 0.206575
upperback 17.131 -1.75219 -0.262741
thorax 0.536752 -1.68552 0.149024
lowerneck 9.44315 -4.66221 0.0550122
upperneck -38.8021 -4.34518 12.745
head -14.6849 -4.71234 6.29359
rclavicle 1.82882e-014 3.37934e-014
rhumerus -21.0636 6.44696 -82.537
rradius 68.592
rwrist -10.0416
rhand -24.7267 -9.20663
rfingers 7.12502
rthumb 1.77555 -39.179
lclavicle 1.82882e-014 3.37934e-014
lhumerus -17.5103 -7.10314 75.3331
lradius 70.7167
lwrist 25.1947
lhand -20.5258 10.3413
lfingers 7.12502
lthumb 5.83222 40.241
rfemur -63.7463 -11.7003 22.8838
rtibia 73.1269
rfoot -24.6322 -11.2348
rtoes -8.68941
lfemur -61.2458 13.186 -24.9288
ltibia 68.9332
lfoot -24.5576 7.29773
ltoes -5.49896
639
root 0.0776187 14.6774 -1.37333 54.8283 -87.8616 -36.6143
lowerback 36.7822 0.399803 0.189089
upperback 17.1532 -1.72827 -0.256092
thorax 0.54149 -1.67673 0.158252
lowerneck 9.38183 -4.65157 0.0118643
upperneck -38.7822 -4.34741 12.7255
head -14.6587 -4.70298 6.28602
rclavicle -2.54444e-014 -2.5842e-014
rhumerus -21.1174 6.45662 -82.5051
rradius 68.7516
rwrist -10.1061
rhand -24.7281 -9.2195
rfingers 7.12502
rthumb 1.77419 -39.1919
lclavicle -2.54444e-014 -2.5842e-014
lhumerus -17.5267 -7.14062 75.3543
lradius 70.7411
lwrist 25.2204
lhand -20.5366 10.3534
lfingers 7.12502
lthumb 5.82177 40.2534
rfemur -63.7684 -11.6901 22.9266
rtibia 73.069
rfoot -24.6272 -11.239
rtoes -8.55849
lfemur -61.2681 13.1779 -24.9025
ltibia 68.8539
lfoot -24.5379 7.26891
ltoes -5.41099
640
root 0.0798248 14.6817 -1.37804 54.4777 -87.8126 -36.2104
lowerback 36.8366 0.430458 0.164495
upperback 17.1721 -1.70267 -0.252319
thorax 0.545215 -1.66706 0.167584
lowerneck 9.319 -4.6419 -0.0297452
upperneck -38.773 -4.34853 12.7149
head -14.6374 -4.69545 6.28331
rclavicle -7.95139e-016 -5.36719e-015
rhumerus -21.1702 6.46297 -82.4766
rradius 68.895
rwrist -10.1787
rhand -24.7249 -9.23853
rfingers 7.12502
rthumb 1.77724 -39.2109
lclavicle -7.95139e-016 -5.36719e-015
lhumerus -17.5454 -7.17703 75.3759
lradius 70.7424
lwrist 25.2305
lhand -20.5465 10.3563
lfingers 7.12502
lthumb 5.81224 40.2566
rfemur -63.8015 -11.6852 22.9692
rtibia 73.0131
rfoot -24.6141 -11.2421
rtoes -8.47354
lfemur -61.299 13.1841 -24.8914
ltibia 68.7757
lfoot -24.5271 7.23451
ltoes -5.31654
641
root 0.0817111 14.6855 -1.38241 54.3189 -87.7709 -35.9875
lowerback 36.8775 0.463678 0.135614
upperback 17.1875 -1.6745 -0.254712
thorax 0.549276 -1.65565 0.171754
lowerneck 9.25705 -4.63519 -0.0665069
upperneck -38.776 -4.34945 12.7169
head -14.622 -4.69133 6.28699
rclavicle -3.65764e-014 -2.80286e-014
rhumerus -21.2221 6.4666 -82.4587
rradius 69.0197
rwrist -10.2568
rhand -24.734 -9.26042
rfingers 7.12502
rthumb 1.76852 -39.2328
lclavicle -3.65764e-014 -2.80286e-014
lhumerus -17.567 -7.2103 75.3938
lradius 70.7191
lwrist 25.2172
lhand -20.5588 10.3461
lfingers 7.12502
lthumb 5.80033 40.2467
rfemur -63.8505 -11.679 23.0161
rtibia 72.9608
rfoot -24.5933 -11.2431
rtoes -8.41655
lfemur -61.3439 13.2068 -24.8909
ltibia 68.702
lfoot -24.5258 7.1941
ltoes -5.199
